<svg xmlns="http://www.w3.org/2000/svg" xmlns:xlink="http://www.w3.org/1999/xlink" width="500" zoomAndPan="magnify" viewBox="0 0 375 374.999991" height="500" preserveAspectRatio="xMidYMid meet" version="1.0"><defs><clipPath id="f089eb88a5"><path d="M 8.652344 8.652344 L 366.347656 8.652344 L 366.347656 366.347656 L 8.652344 366.347656 Z M 8.652344 8.652344 " clip-rule="nonzero"/></clipPath><clipPath id="b1e331f321"><path d="M 187.5 8.652344 C 88.726562 8.652344 8.652344 88.726562 8.652344 187.5 C 8.652344 286.273438 88.726562 366.347656 187.5 366.347656 C 286.273438 366.347656 366.347656 286.273438 366.347656 187.5 C 366.347656 88.726562 286.273438 8.652344 187.5 8.652344 Z M 187.5 8.652344 " clip-rule="nonzero"/></clipPath><clipPath id="f99bed6e6d"><path d="M 27.65625 107 L 347.15625 107 L 347.15625 269.335938 L 27.65625 269.335938 Z M 27.65625 107 " clip-rule="nonzero"/></clipPath></defs><g clip-path="url(#f089eb88a5)"><g clip-path="url(#b1e331f321)"><path fill="#001d64" d="M 8.652344 8.652344 L 366.347656 8.652344 L 366.347656 366.347656 L 8.652344 366.347656 Z M 8.652344 8.652344 " fill-opacity="1" fill-rule="nonzero"/></g></g><g clip-path="url(#f99bed6e6d)"><path fill="#0098f1" d="M 341.292969 153.164062 L 203.660156 109.519531 C 193.078125 106.171875 181.910156 106.171875 171.339844 109.519531 L 33.535156 153.222656 C 29.964844 154.46875 27.65625 157.710938 27.65625 161.476562 C 27.65625 165.246094 29.964844 168.476562 33.695312 169.789062 L 110.226562 194.0625 L 110.226562 250.941406 C 110.226562 253.328125 111.707031 255.460938 113.945312 256.296875 C 137.421875 265.007812 162.160156 269.414062 187.496094 269.414062 C 212.828125 269.414062 237.570312 264.996094 261.042969 256.296875 C 263.28125 255.472656 264.765625 253.328125 264.765625 250.941406 L 264.765625 214.921875 C 264.765625 211.769531 262.207031 209.210938 259.054688 209.210938 C 255.90625 209.210938 253.347656 211.769531 253.347656 214.921875 L 253.347656 246.933594 C 211.183594 261.628906 163.804688 261.628906 121.640625 246.933594 L 121.640625 197.691406 L 171.339844 213.449219 C 176.625 215.113281 182.058594 215.960938 187.496094 215.960938 C 192.929688 215.960938 198.375 215.125 203.660156 213.449219 L 276.96875 190.167969 L 276.96875 263.714844 C 276.96875 266.867188 279.527344 269.425781 282.679688 269.425781 C 285.828125 269.425781 288.386719 266.867188 288.386719 263.714844 L 288.386719 182.371094 C 288.386719 182.234375 288.273438 182.140625 288.273438 182.003906 C 288.238281 181.546875 288.273438 181.101562 288.125 180.648438 C 287.964844 180.144531 287.667969 179.746094 287.394531 179.324219 C 287.300781 179.183594 287.257812 179.035156 287.152344 178.898438 C 286.503906 178.066406 285.648438 177.496094 284.675781 177.117188 C 284.5625 177.074219 284.515625 176.957031 284.390625 176.914062 L 189.21875 146.738281 C 186.238281 145.8125 183.007812 147.445312 182.058594 150.449219 C 181.113281 153.460938 182.769531 156.671875 185.78125 157.617188 L 263.804688 182.359375 L 200.214844 202.554688 C 191.890625 205.183594 183.097656 205.183594 174.800781 202.554688 L 45.261719 161.476562 L 174.789062 120.398438 C 183.097656 117.773438 191.890625 117.773438 200.203125 120.398438 L 329.726562 161.476562 L 304.792969 169.390625 C 301.789062 170.347656 300.125 173.546875 301.082031 176.558594 C 302.03125 179.5625 305.226562 181.230469 308.253906 180.269531 L 341.453125 169.71875 C 345.027344 168.476562 347.332031 165.234375 347.332031 161.464844 C 347.332031 157.699219 345.027344 154.46875 341.292969 153.15625 Z M 341.292969 153.164062 " fill-opacity="1" fill-rule="nonzero"/></g></svg>