<svg xmlns="http://www.w3.org/2000/svg" xmlns:xlink="http://www.w3.org/1999/xlink" width="500" zoomAndPan="magnify" viewBox="0 0 375 374.999991" height="500" preserveAspectRatio="xMidYMid meet" version="1.0"><defs><clipPath id="aa5e424dde"><path d="M 2.53125 94 L 372.28125 94 L 372.28125 282 L 2.53125 282 Z M 2.53125 94 " clip-rule="nonzero"/></clipPath></defs><g clip-path="url(#aa5e424dde)"><path fill="#0098f1" d="M 365.46875 147.769531 L 206.203125 97.261719 C 193.957031 93.390625 181.035156 93.390625 168.800781 97.261719 L 9.335938 147.835938 C 5.199219 149.277344 2.53125 153.027344 2.53125 157.390625 C 2.53125 161.75 5.199219 165.488281 9.519531 167.007812 L 98.078125 195.09375 L 98.078125 260.914062 C 98.078125 263.675781 99.796875 266.148438 102.386719 267.113281 C 129.550781 277.191406 158.179688 282.292969 187.496094 282.292969 C 216.8125 282.292969 245.441406 277.179688 272.605469 267.113281 C 275.195312 266.160156 276.910156 263.675781 276.910156 260.914062 L 276.910156 219.234375 C 276.910156 215.585938 273.953125 212.625 270.304688 212.625 C 266.660156 212.625 263.699219 215.585938 263.699219 219.234375 L 263.699219 256.277344 C 214.910156 273.28125 160.082031 273.28125 111.289062 256.277344 L 111.289062 199.296875 L 168.800781 217.527344 C 174.917969 219.457031 181.207031 220.433594 187.496094 220.433594 C 193.785156 220.433594 200.085938 219.46875 206.203125 217.527344 L 291.035156 190.589844 L 291.035156 275.699219 C 291.035156 279.34375 293.992188 282.304688 297.640625 282.304688 C 301.285156 282.304688 304.246094 279.34375 304.246094 275.699219 L 304.246094 181.566406 C 304.246094 181.40625 304.113281 181.300781 304.113281 181.144531 C 304.074219 180.613281 304.113281 180.101562 303.941406 179.570312 C 303.757812 178.988281 303.414062 178.527344 303.097656 178.039062 C 302.992188 177.878906 302.9375 177.707031 302.820312 177.550781 C 302.066406 176.585938 301.074219 175.925781 299.953125 175.488281 C 299.820312 175.4375 299.769531 175.304688 299.621094 175.25 L 189.488281 140.332031 C 186.042969 139.261719 182.304688 141.152344 181.207031 144.625 C 180.109375 148.113281 182.027344 151.828125 185.511719 152.921875 L 275.800781 181.554688 L 202.214844 204.925781 C 192.582031 207.964844 182.410156 207.964844 172.804688 204.925781 L 22.90625 157.390625 L 172.789062 109.851562 C 182.410156 106.816406 192.582031 106.816406 202.199219 109.851562 L 352.085938 157.390625 L 323.230469 166.542969 C 319.757812 167.65625 317.828125 171.355469 318.9375 174.839844 C 320.035156 178.316406 323.734375 180.246094 327.234375 179.136719 L 365.652344 166.929688 C 369.789062 165.488281 372.457031 161.734375 372.457031 157.375 C 372.457031 153.015625 369.789062 149.277344 365.46875 147.757812 Z M 365.46875 147.769531 " fill-opacity="1" fill-rule="nonzero"/></g></svg>